:SAMPLES-PER-SECOND 30
:FULLY-SPECIFIED
:DEGREES
260
root  -43.1914 36.9514 7.53385 -178.255 52.1858 -177.976
RightUpLeg  -26.6113 -11.6225 -12.5061
RightLeg  34.5544 -9.58847 -7.27074
RightFoot  0.744338 -1.86388 17.5227
RightToes  -1.74624e-010 0 -3.6325e-017
Spine  9.22355 -0.0654509 -13.513
Spine1  19.3363 0.464988 -5.50391
HEad  -13.2504 27.577 -2.6962
LeftShoulder1  1.3746 -2.16733 -17.6003
LeftArm  15.8067 1.26462 -61.887
LeftForeArm  69.6059 -79.234 -82.2328
LeftHand  -2.73736 -3.78961 33.9589
RightShoulder  0.561457 -0.65436 12.8309
RightArm  8.3057 -18.2621 62.0232
RightForeArm  145.829 65.179 156.155
RightHand  -2.16867 6.52171 -21.2133
LeftUpLeg  -10.8646 -0.199413 10.0149
LeftLeg  41.418 4.12815 4.30643
LeftFoot  -29.5256 -2.5018 -16.6364
LeftToes  3.7286e-011 -1.5702e-010 -9.70233e-012
261
root  -43.4861 37.1652 7.44721 -178.413 52.4453 -177.67
RightUpLeg  -25.5082 -13.0173 -12.4003
RightLeg  32.1594 -9.49755 -6.61136
RightFoot  3.48258 -2.25667 17.4091
RightToes  -1.74624e-010 0 -3.6325e-017
Spine  9.03438 -0.2443 -14.2127
Spine1  19.5732 -0.121566 -4.5678
HEad  -12.8386 27.9104 -2.69588
LeftShoulder1  1.35541 -2.18043 -17.1745
LeftArm  16.2125 0.758498 -61.3709
LeftForeArm  67.0261 -79.1373 -81.2191
LeftHand  -2.64952 -3.52406 33.8552
RightShoulder  0.559575 -0.628689 12.5939
RightArm  7.7253 -17.156 61.8529
RightForeArm  145.63 65.0205 156.295
RightHand  -2.03951 6.16134 -20.5923
LeftUpLeg  -10.2711 0.142673 9.66138
LeftLeg  40.4007 4.65351 4.64119
LeftFoot  -28.4145 -2.20843 -15.7662
LeftToes  3.7286e-011 -1.5702e-010 -9.70233e-012
262
root  -43.713 37.3447 7.36367 -178.701 52.8138 -177.536
RightUpLeg  -24.295 -13.8131 -12.426
RightLeg  29.7196 -9.56555 -6.08254
RightFoot  5.82317 -2.56425 17.144
RightToes  -1.74624e-010 0 -3.6325e-017
Spine  8.75847 -0.319561 -14.632
Spine1  19.955 -0.500918 -3.70462
HEad  -12.566 28.0866 -2.79645
LeftShoulder1  1.31211 -2.0846 -16.7784
LeftArm  16.5361 -0.119832 -60.1819
LeftForeArm  68.7402 -79.1862 -82.6662
LeftHand  -2.64484 -3.5404 33.7415
RightShoulder  0.561927 -0.626429 12.5888
RightArm  6.78927 -16.8259 61.8365
RightForeArm  146.239 64.6563 156.724
RightHand  -1.96554 5.96937 -20.1927
LeftUpLeg  -9.59265 0.067056 9.20995
LeftLeg  39.491 5.30342 5.0705
LeftFoot  -27.3737 -2.03818 -15.5576
LeftToes  3.7286e-011 -1.5702e-010 -9.70233e-012
263
root  -43.8417 37.4785 7.28956 -179.046 53.262 -177.477
RightUpLeg  -23.0764 -14.1257 -12.4888
RightLeg  27.5139 -9.43917 -5.5178
RightFoot  7.22942 -2.69939 16.7074
RightToes  -1.74624e-010 0 -3.6325e-017
Spine  8.44388 -0.282344 -14.9258
Spine1  20.3957 -0.688813 -2.97938
HEad  -12.5069 28.2297 -2.9608
LeftShoulder1  1.27295 -2.0202 -16.3031
LeftArm  16.2839 -0.791791 -58.7862
LeftForeArm  73.2133 -79.2906 -86.2734
LeftHand  -2.67712 -3.69832 33.5711
RightShoulder  0.573757 -0.590195 12.7699
RightArm  5.93275 -17.1234 61.7106
RightForeArm  146.723 64.2035 157.214
RightHand  -1.93013 5.89013 -19.9745
LeftUpLeg  -8.8191 -0.313685 8.75866
LeftLeg  38.7455 6.21932 5.72146
LeftFoot  -26.6348 -1.91927 -15.4036
LeftToes  3.7286e-011 -1.5702e-010 -9.70233e-012
264
root  -43.9006 37.5735 7.2398 -179.362 53.6677 -177.457
RightUpLeg  -22.0552 -13.9987 -12.5592
RightLeg  25.9395 -9.25478 -5.08434
RightFoot  7.54894 -2.7125 16.5163
RightToes  -1.74624e-010 0 -3.6325e-017
Spine  8.33961 -0.189139 -15.2065
Spine1  20.6294 -0.84043 -2.33865
HEad  -12.6028 28.2901 -3.25349
LeftShoulder1  1.20224 -1.79491 -15.916
LeftArm  15.6867 -1.30693 -57.7536
LeftForeArm  75.3343 -79.3234 -88.0319
LeftHand  -2.68609 -3.79083 33.358
RightShoulder  0.594873 -0.507654 12.9479
RightArm  5.42954 -17.756 61.4123
RightForeArm  146.837 63.8913 157.521
RightHand  -1.89744 5.8513 -19.7124
LeftUpLeg  -8.10016 -1.01595 8.30428
LeftLeg  38.1708 7.4447 6.62591
LeftFoot  -26.1557 -1.80277 -14.9991
LeftToes  3.7286e-011 -1.5702e-010 -9.70233e-012
265
root  -43.9208 37.6476 7.21537 -179.504 53.9841 -177.582
RightUpLeg  -21.6983 -13.4498 -12.6822
RightLeg  25.1762 -9.52159 -5.06156
RightFoot  7.9992 -2.84207 16.8898
RightToes  -1.74624e-010 0 -3.6325e-017
Spine  8.32108 -0.168907 -15.4627
Spine1  20.5897 -1.01581 -1.8903
HEad  -12.8924 28.2251 -3.73857
LeftShoulder1  1.11973 -1.44733 -15.8346
LeftArm  15.1011 -1.83453 -57.1515
LeftForeArm  73.2483 -79.3023 -85.9278
LeftHand  -2.68647 -3.78589 33.3795
RightShoulder  0.609365 -0.431803 12.9242
RightArm  5.24325 -18.4351 61.2714
RightForeArm  147.057 63.8461 157.585
RightHand  -1.85035 5.83523 -19.2663
LeftUpLeg  -7.7006 -1.73394 7.87051
LeftLeg  37.6593 8.43481 7.31348
LeftFoot  -25.7973 -1.72652 -14.7629
LeftToes  3.7286e-011 -1.5702e-010 -9.70233e-012
266
root  -43.8823 37.7007 7.22155 -179.573 54.1817 -178.043
RightUpLeg  -22.3587 -13.099 -12.8722
RightLeg  25.6294 -10.2773 -5.54522
RightFoot  9.24922 -3.14726 17.5546
RightToes  -1.74624e-010 0 -3.6325e-017
Spine  8.21984 -0.263112 -15.8693
Spine1  20.4472 -1.23294 -1.65156
HEad  -13.4431 28.1527 -4.32004
LeftShoulder1  1.09701 -1.33126 -15.9117
LeftArm  14.5573 -2.1136 -56.7992
LeftForeArm  70.4557 -79.2527 -83.1868
LeftHand  -2.68807 -3.7415 33.5506
RightShoulder  0.61533 -0.374017 12.7259
RightArm  5.18998 -18.9832 61.5134
RightForeArm  147.609 63.893 157.598
RightHand  -1.81056 5.84936 -18.8437
LeftUpLeg  -7.62476 -1.80635 7.56177
LeftLeg  37.0334 8.58821 7.28266
LeftFoot  -25.5823 -1.71233 -14.8627
LeftToes  3.7286e-011 -1.5702e-010 -9.70233e-012
267
root  -43.7642 37.7335 7.26403 -179.818 54.1624 -178.87
RightUpLeg  -23.8056 -13.2143 -13.1698
RightLeg  27.5958 -10.827 -6.29908
RightFoot  10.0881 -3.36571 18.0281
RightToes  -1.74624e-010 0 -3.6325e-017
Spine  8.2019 -0.405243 -16.5011
Spine1  20.3499 -1.51501 -1.47321
HEad  -14.1222 28.1153 -4.83328
LeftShoulder1  1.13068 -1.49346 -15.8458
LeftArm  14.2538 -2.05384 -56.8261
LeftForeArm  69.6666 -79.229 -82.6376
LeftHand  -2.65074 -3.67641 33.3342
RightShoulder  0.620944 -0.321485 12.558
RightArm  5.17429 -19.4147 61.9288
RightForeArm  148.338 63.7494 157.805
RightHand  -1.81022 5.90962 -18.7435
LeftUpLeg  -7.58691 -1.17276 7.3886
LeftLeg  36.1914 8.04708 6.66387
LeftFoot  -25.525 -1.714 -14.9331
LeftToes  3.7286e-011 -1.5702e-010 -9.70233e-012
268
root  -43.5806 37.7625 7.32425 179.799 53.8646 -179.788
RightUpLeg  -25.3636 -12.9793 -13.666
RightLeg  30.2447 -10.4658 -6.7474
RightFoot  8.99623 -3.21177 18.1136
RightToes  -1.74624e-010 0 -3.6325e-017
Spine  8.38348 -0.553232 -17.0162
Spine1  20.4169 -1.83483 -1.26894
HEad  -14.6503 27.9872 -5.22635
LeftShoulder1  1.14388 -1.59187 -15.651
LeftArm  14.63 -2.13488 -57.506
LeftForeArm  69.1846 -79.2129 -82.3591
LeftHand  -2.59414 -3.6644 32.7081
RightShoulder  0.617427 -0.338614 12.553
RightArm  5.21702 -19.7378 62.1577
RightForeArm  149.083 63.4332 158.167
RightHand  -1.83808 6.008 -18.8652
LeftUpLeg  -7.40371 -0.565958 7.29184
LeftLeg  35.2176 7.34775 5.92612
LeftFoot  -25.5238 -1.70084 -14.8302
LeftToes  3.7286e-011 -1.5702e-010 -9.70233e-012
269
root  -43.338 37.7857 7.37736 179.492 53.3948 179.456
RightUpLeg  -26.5212 -11.8304 -14.3928
RightLeg  31.9883 -9.37556 -6.49233
RightFoot  6.29089 -2.76712 17.9878
RightToes  -1.74624e-010 0 -3.6325e-017
Spine  8.58309 -0.704862 -17.1463
Spine1  20.7512 -2.13145 -1.03584
HEad  -14.9091 27.7552 -5.55164
LeftShoulder1  1.12106 -1.50838 -15.5627
LeftArm  15.6637 -2.67321 -58.7576
LeftForeArm  67.0298 -79.1538 -79.935
LeftHand  -2.6313 -3.8728 32.4446
RightShoulder  0.593767 -0.481543 12.7158
RightArm  5.30466 -19.7588 62.0475
RightForeArm  149.565 63.2782 158.353
RightHand  -1.84589 6.08079 -18.8275
LeftUpLeg  -7.14539 -0.41096 7.2779
LeftLeg  34.3287 6.68696 5.26998
LeftFoot  -25.4868 -1.71464 -14.9773
LeftToes  3.7286e-011 -1.5702e-010 -9.70233e-012
270
root  -43.0157 37.7598 7.42999 179.138 52.9304 178.68
RightUpLeg  -27.2313 -10.3727 -15.3501
RightLeg  32.0856 -8.39649 -5.8713
RightFoot  3.95939 -2.45445 18.3401
RightToes  -1.74624e-010 0 -3.6325e-017
Spine  8.77027 -0.812476 -17.1717
Spine1  21.1925 -2.37862 -0.752154
HEad  -15.0726 27.5823 -5.91142
LeftShoulder1  1.12611 -1.51743 -15.6278
LeftArm  16.7356 -3.37459 -60.2124
LeftForeArm  64.4565 -79.0592 -76.8547
LeftHand  -2.80004 -4.30635 32.9488
RightShoulder  0.56948 -0.638382 12.975
RightArm  5.31483 -19.3654 61.7313
RightForeArm  149.478 63.4709 158.173
RightHand  -1.8222 6.08729 -18.5839
LeftUpLeg  -6.89629 -0.302789 7.31947
LeftLeg  33.7567 5.99877 4.67779
LeftFoot  -25.4677 -1.79386 -15.6247
LeftToes  3.7286e-011 -1.5702e-010 -9.70233e-012
271
root  -42.5937 37.6449 7.50097 178.478 52.5533 177.645
RightUpLeg  -27.6927 -9.49295 -16.4455
RightLeg  31.2191 -7.8239 -5.31847
RightFoot  3.44389 -2.55036 19.6478
RightToes  -1.74624e-010 0 -3.6325e-017
Spine  9.21128 -0.820045 -17.3346
Spine1  21.4314 -2.5747 -0.478139
HEad  -15.4294 27.4995 -6.47038
LeftShoulder1  1.18804 -1.77586 -15.712
LeftArm  17.3432 -4.01093 -61.5919
LeftForeArm  63.3372 -79.0073 -75.6372
LeftHand  -2.97347 -4.68933 33.6226
RightShoulder  0.572375 -0.645308 13.1425
RightArm  5.1368 -18.8379 61.4883
RightForeArm  149.034 63.7722 157.856
RightHand  -1.80957 6.08357 -18.4652
LeftUpLeg  -6.59483 0.112901 7.36525
LeftLeg  33.613 5.32081 4.17526
LeftFoot  -25.7209 -1.91278 -16.2886
LeftToes  3.7286e-011 -1.5702e-010 -9.70233e-012
272
root  -42.0626 37.4607 7.5813 177.621 52.2269 176.514
RightUpLeg  -28.0574 -9.12642 -17.4868
RightLeg  30.6035 -7.47542 -4.9781
RightFoot  4.03288 -2.86348 21.1996
RightToes  -1.74624e-010 0 -3.6325e-017
Spine  9.85253 -0.786692 -17.3785
Spine1  21.5493 -2.72573 -0.324774
HEad  -16.1069 27.371 -7.30941
LeftShoulder1  1.26709 -2.11034 -15.7876
LeftArm  17.4528 -4.86071 -62.7905
LeftForeArm  63.348 -79.0081 -75.875
LeftHand  -3.04363 -4.83721 33.8988
RightShoulder  0.589849 -0.546996 13.0551
RightArm  4.84862 -18.4921 61.443
RightForeArm  148.81 63.8627 157.749
RightHand  -1.82755 6.12657 -18.5758
LeftUpLeg  -6.07908 0.606434 7.51027
LeftLeg  33.6883 4.55489 3.64227
LeftFoot  -26.4268 -2.05256 -16.5963
LeftToes  3.7286e-011 -1.5702e-010 -9.70233e-012
